<svg width="481" height="359" viewBox="0 0 481 359" fill="none" xmlns="http://www.w3.org/2000/svg">
<path d="M238.018 355.203L18.3127 225.211C11.318 221.273 5.32254 214.822 12.1379 210.589L232.625 83.3669C235.93 81.3148 240.952 79.968 244.321 81.9304L474.916 215.937C481.91 220.003 483.166 231.329 476.197 235.433L266.971 354.998C258.035 360.187 247.026 360.265 238.018 355.203Z" fill="#5B36A0"/>
<path d="M238.018 349.203L18.3127 219.211C11.318 215.273 5.32254 208.822 12.1379 204.589L232.625 77.3669C235.93 75.3148 240.952 73.968 244.321 75.9304L474.916 209.937C481.91 214.003 483.166 225.329 476.197 229.433L266.971 348.998C258.035 354.187 247.026 354.265 238.018 349.203Z" fill="#6862E6"/>
<g style="mix-blend-mode:multiply" opacity="0.25">
<path d="M256.133 177.693L212.781 202.46C212.781 202.46 279.564 243.26 293.22 249.006L318.188 213.093" fill="url(#paint0_linear_2_2)"/>
</g>
<g style="mix-blend-mode:multiply" opacity="0.25">
<path d="M241.157 296.513L197.792 271.798L154.428 296.565C154.428 296.565 177.013 310.366 198.599 323.038C212.307 313.328 226.027 303.517 241.157 296.513Z" fill="url(#paint1_linear_2_2)"/>
</g>
<g style="mix-blend-mode:multiply" opacity="0.46">
<path d="M147.728 143.883L120.223 159.595C120.223 159.595 122.554 173.999 136.211 179.745L172.222 156.658" fill="url(#paint2_linear_2_2)"/>
</g>
<ellipse cx="161.192" cy="147.898" rx="16.59" ry="11.6974" fill="#68E1FD"/>
<ellipse cx="161.179" cy="140.997" rx="12.4265" ry="5.09196" fill="#974C26"/>
<path fill-rule="evenodd" clip-rule="evenodd" d="M160.474 125.619C160.654 127.915 160.73 130.21 160.73 132.506C160.718 135.379 160.577 138.252 160.269 141.113C159.283 139.74 158.309 138.304 157.284 136.688C155.965 134.623 154.735 132.506 153.608 130.339C152.56 128.411 151.664 126.404 150.93 124.336C150.114 122.09 149.459 119.788 148.97 117.448C148.842 116.884 148.727 116.217 148.624 115.602V115.383V114.845C148.522 113.639 148.419 112.357 148.419 111.074C148.362 106.712 149.204 102.385 150.892 98.3633C155.377 104.876 158.401 112.284 159.757 120.078C159.842 120.54 159.923 121.006 160 121.476C160 121.386 160.18 122.322 160.18 122.669L160.308 123.836C160.368 124.426 160.423 125.02 160.474 125.619ZM154.21 106.687C154.21 106.687 154.21 106.687 154.21 106.687H154.197C154.201 106.687 154.206 106.687 154.21 106.687ZM154.21 106.687C154.525 106.669 154.841 106.704 155.145 106.79C154.838 106.448 154.526 106.114 154.21 105.79C154.275 106.085 154.276 106.391 154.21 106.687Z" fill="#999A1C"/>
<path fill-rule="evenodd" clip-rule="evenodd" d="M168.494 128.338C167.405 130.428 166.278 132.34 164.996 134.276C163.446 136.7 161.73 139.035 160.026 141.305C159.911 139.625 159.911 137.88 159.911 135.969C159.911 133.52 160.013 131.083 160.244 128.646C160.402 126.456 160.732 124.281 161.23 122.143C161.753 119.809 162.443 117.516 163.293 115.281C163.523 114.691 163.767 114.114 164.01 113.537L164.01 113.537L164.074 113.331L164.33 112.857C164.907 111.741 165.522 110.638 166.188 109.573C168.502 105.868 171.554 102.68 175.155 100.21C175.416 108.124 173.96 116 170.889 123.297C170.71 123.716 170.526 124.144 170.339 124.58L169.839 125.683L169.314 126.747C169.049 127.278 168.776 127.808 168.494 128.338ZM173.887 108.239C173.801 108.529 173.652 108.796 173.452 109.022C173.702 109.154 173.93 109.322 174.131 109.522C174.062 109.112 173.981 108.684 173.887 108.239Z" fill="#999A1C"/>
<path fill-rule="evenodd" clip-rule="evenodd" d="M168.75 137.919C167.478 138.663 166.196 139.355 164.907 139.997C163.293 140.805 161.64 141.523 159.987 142.216C160.474 141.279 161.025 140.317 161.64 139.291C162.447 138.009 163.293 136.726 164.202 135.443C164.993 134.312 165.871 133.244 166.828 132.25C167.865 131.158 168.978 130.142 170.159 129.21L171.107 128.505L171.21 128.415L171.504 128.235C172.183 127.825 172.862 127.427 173.567 127.068C176.004 125.814 178.673 125.076 181.407 124.9C178.997 129.25 175.676 133.026 171.671 135.969L170.954 136.495L170.339 136.931L169.711 137.329L168.75 137.919ZM178.102 128.812C177.963 128.941 177.796 129.038 177.615 129.095V129.107C177.701 129.268 177.761 129.441 177.794 129.62C177.906 129.355 178.008 129.086 178.102 128.812Z" fill="#999A1C"/>
<path fill-rule="evenodd" clip-rule="evenodd" d="M160.474 125.619C160.654 127.915 160.73 130.21 160.73 132.506C160.718 135.379 160.577 138.252 160.269 141.113C159.283 139.74 158.309 138.304 157.284 136.688C155.965 134.623 154.735 132.506 153.608 130.339C152.56 128.411 151.664 126.404 150.93 124.336C150.114 122.09 149.459 119.788 148.97 117.448C148.842 116.884 148.727 116.217 148.624 115.602V115.383V114.845C148.522 113.639 148.419 112.357 148.419 111.074C148.362 106.712 149.204 102.385 150.892 98.3633C155.377 104.876 158.401 112.284 159.757 120.078C159.842 120.54 159.923 121.006 160 121.476C160 121.386 160.18 122.322 160.18 122.669L160.308 123.836C160.368 124.426 160.423 125.02 160.474 125.619ZM154.21 106.687C154.21 106.687 154.21 106.687 154.21 106.687H154.197C154.201 106.687 154.206 106.687 154.21 106.687ZM154.21 106.687C154.525 106.669 154.841 106.704 155.145 106.79C154.838 106.448 154.526 106.114 154.21 105.79C154.275 106.085 154.276 106.391 154.21 106.687Z" fill="#999A1C"/>
<path fill-rule="evenodd" clip-rule="evenodd" d="M168.494 128.338C167.405 130.428 166.278 132.34 164.996 134.276C163.446 136.7 161.73 139.035 160.026 141.305C159.911 139.625 159.911 137.88 159.911 135.969C159.911 133.52 160.013 131.083 160.244 128.646C160.402 126.456 160.732 124.281 161.23 122.143C161.753 119.809 162.443 117.516 163.293 115.281C163.523 114.691 163.767 114.114 164.01 113.537L164.01 113.537L164.074 113.331L164.33 112.857C164.907 111.741 165.522 110.638 166.188 109.573C168.502 105.868 171.554 102.68 175.155 100.21C175.416 108.124 173.96 116 170.889 123.297C170.71 123.716 170.526 124.144 170.339 124.58L169.839 125.683L169.314 126.747C169.049 127.278 168.776 127.808 168.494 128.338ZM173.887 108.239C173.801 108.529 173.652 108.796 173.452 109.022C173.702 109.154 173.93 109.322 174.131 109.522C174.062 109.112 173.981 108.684 173.887 108.239Z" fill="#999A1C"/>
<path fill-rule="evenodd" clip-rule="evenodd" d="M168.75 137.919C167.478 138.663 166.196 139.355 164.907 139.997C163.293 140.805 161.64 141.523 159.987 142.216C160.474 141.279 161.025 140.317 161.64 139.291C162.447 138.009 163.293 136.726 164.202 135.443C164.993 134.312 165.871 133.244 166.828 132.25C167.865 131.158 168.978 130.142 170.159 129.21L171.107 128.505L171.21 128.415L171.504 128.235C172.183 127.825 172.862 127.427 173.567 127.068C176.004 125.814 178.673 125.076 181.407 124.9C178.997 129.25 175.676 133.026 171.671 135.969L170.954 136.495L170.339 136.931L169.711 137.329L168.75 137.919ZM178.102 128.812C177.963 128.941 177.796 129.038 177.615 129.095V129.107C177.701 129.268 177.761 129.441 177.794 129.62C177.906 129.355 178.008 129.086 178.102 128.812Z" fill="#999A1C"/>
<path d="M273.35 168.022L249.356 179.565C247.513 180.452 246.311 182.285 246.231 184.33C246.15 186.375 247.205 188.297 248.971 189.326L305.839 222.545C308.392 224.04 311.669 223.254 313.269 220.763L327.092 199.24" fill="#A1482D"/>
<path d="M403.854 112.344L212.525 1.96239C209.853 0.424366 206.566 0.428254 203.898 1.97259C201.23 3.51693 199.587 6.36762 199.586 9.45283V124.285C199.586 126.851 200.953 129.222 203.173 130.505L407.146 248.39C408.578 249.221 410.345 249.222 411.778 248.393C413.211 247.565 414.093 246.032 414.09 244.375V130.018C414.084 122.717 410.18 115.976 403.854 112.344Z" fill="#F47B56"/>
<path d="M212.537 10.6457L398.089 117.525C402.122 119.85 404.608 124.154 404.61 128.812V214.888C404.607 216.564 403.714 218.112 402.265 218.953C400.816 219.793 399.031 219.798 397.577 218.967L208.348 110.304C206.907 109.477 206.017 107.941 206.017 106.277V14.4294C206.017 12.8741 206.844 11.4365 208.188 10.6567C209.532 9.87678 211.189 9.87258 212.537 10.6457Z" fill="white"/>
<ellipse cx="289.738" cy="168.465" rx="4.03558" ry="4.61719" transform="rotate(-10.9 289.738 168.465)" fill="#AB643C"/>
<path opacity="0.32" d="M262.41 127.427L348.639 179.296L391.235 154.503L315.126 110.15" fill="url(#paint3_linear_2_2)"/>
<path d="M368.97 117.102L275.746 60.1928C274.73 59.6044 273.474 59.6147 272.468 60.2199C271.461 60.8251 270.862 61.9296 270.903 63.1043V95.5287C270.896 96.7218 271.513 97.8317 272.53 98.453L365.742 154.157C366.739 154.724 367.962 154.717 368.952 154.138C369.942 153.559 370.549 152.496 370.546 151.348L371.033 121.117C371.106 119.507 370.321 117.979 368.97 117.102Z" fill="#E2AC00"/>
<path d="M346.667 133.789C350.01 138.47 355.89 139.779 359.785 136.726C363.679 133.673 364.128 127.402 360.784 122.733C357.44 118.064 351.56 116.743 347.666 119.796C343.771 122.848 343.323 129.107 346.667 133.789Z" fill="white"/>
<path d="M337.52 111.318L299.497 88.3974C298.82 88.0802 298.014 88.3307 297.635 88.9757C297.257 89.6207 297.431 90.4482 298.037 90.8857L336.059 113.806C336.736 114.123 337.543 113.873 337.921 113.228C338.3 112.583 338.126 111.755 337.52 111.318Z" fill="#F2F2F2"/>
<path d="M335.957 120.629L283.548 89.0387C282.885 88.8068 282.152 89.0842 281.808 89.6969C281.464 90.3096 281.609 91.081 282.151 91.527L334.496 123.13C335.173 123.448 335.98 123.197 336.358 122.552C336.737 121.907 336.563 121.08 335.957 120.642V120.629Z" fill="#F2F2F2"/>
<path d="M350.369 123.387L257.196 66.4904C256.18 65.902 254.924 65.9123 253.918 66.5175C252.911 67.1227 252.312 68.2272 252.353 69.4019V101.813C252.338 103.009 252.951 104.124 253.968 104.751L347.179 160.454C348.187 161.034 349.429 161.025 350.427 160.429C351.426 159.833 352.025 158.745 351.996 157.581L352.483 127.35C352.526 125.748 351.723 124.242 350.369 123.387Z" fill="#F47B56"/>
<path d="M328.065 140.074C331.409 144.755 337.289 146.063 341.184 143.011C345.078 139.958 345.526 133.686 342.183 129.018C338.839 124.349 332.959 123.028 329.065 126.08C325.17 129.133 324.722 135.392 328.065 140.074Z" fill="white"/>
<path d="M318.918 117.602L280.87 94.6822C280.194 94.3649 279.387 94.6155 279.008 95.2605C278.63 95.9055 278.804 96.7329 279.41 97.1704L317.432 120.091C318.109 120.408 318.916 120.157 319.294 119.512C319.673 118.867 319.499 118.04 318.893 117.602H318.918Z" fill="#F2F2F2"/>
<path d="M317.343 126.978L264.946 95.3363C264.27 95.0191 263.463 95.2696 263.084 95.9146C262.706 96.5596 262.88 97.3871 263.486 97.8246L315.895 129.415C316.572 129.732 317.378 129.482 317.757 128.837C318.136 128.192 317.962 127.364 317.355 126.927L317.343 126.978Z" fill="#F2F2F2"/>
<path d="M326.989 127.209L233.791 70.3126C232.774 69.7241 231.519 69.7345 230.512 70.3397C229.506 70.9448 228.907 72.0494 228.948 73.2241V105.636C228.94 106.829 229.558 107.939 230.575 108.56L323.786 164.264C324.794 164.844 326.036 164.834 327.035 164.238C328.033 163.643 328.633 162.554 328.603 161.391L329.09 131.16C329.132 129.565 328.334 128.065 326.989 127.209Z" fill="#68E1FD"/>
<path d="M326.989 127.209L233.791 70.3126C232.774 69.7241 231.519 69.7345 230.512 70.3397C229.506 70.9448 228.907 72.0494 228.948 73.2241V105.636C228.94 106.829 229.558 107.939 230.575 108.56L323.786 164.264C324.794 164.844 326.036 164.834 327.035 164.238C328.033 163.643 328.633 162.554 328.603 161.391L329.09 131.16C329.132 129.565 328.334 128.065 326.989 127.209Z" fill="#68E1FD"/>
<path d="M304.673 143.896C308.016 148.577 313.897 149.886 317.791 146.833C321.686 143.78 322.134 137.508 318.79 132.84C315.447 128.171 309.566 126.85 305.672 129.903C301.777 132.955 301.368 139.214 304.673 143.896Z" fill="white"/>
<path d="M295.526 121.425L257.491 98.5043C256.814 98.1871 256.007 98.4377 255.629 99.0827C255.25 99.7276 255.424 100.555 256.03 100.993L294.053 123.913C294.729 124.23 295.536 123.979 295.915 123.335C296.293 122.69 296.119 121.862 295.513 121.425H295.526Z" fill="#F2F2F2"/>
<path d="M293.95 130.749L241.541 99.1585C240.864 98.8413 240.058 99.0918 239.679 99.7368C239.301 100.382 239.475 101.209 240.081 101.647L292.49 133.237C293.166 133.555 293.973 133.304 294.352 132.659C294.73 132.014 294.556 131.187 293.95 130.749Z" fill="#F2F2F2"/>
<path d="M204.672 124.028C198.649 129.218 194.094 135.901 191.464 143.408C186.826 156.235 198.42 177.192 198.42 177.192L216.458 162.891" fill="#FF8F6F"/>
<path d="M202.724 293.602L197.831 290.896L199.112 283.893C199.112 283.893 206.401 284.585 207.042 287.176" fill="#003B94"/>
<path d="M204.518 293.499C205.62 292.82 206.773 292.217 207.913 291.614C210.744 290.062 214.831 288.459 216.573 285.547C217.304 284.342 217.212 282.809 216.342 281.699C213.78 278.595 208.169 283.7 205.299 280.263C204.736 279.583 204.467 268.796 204.467 268.796L193.552 271.746C193.552 271.746 191.707 293.422 191.912 294.756C192.117 296.09 195.871 297.321 195.871 297.321C196.988 297.084 198.055 296.649 199.022 296.039C200.162 295.205 199.124 285.034 200.585 286.458C202.045 287.881 202.686 293.448 202.686 293.448C203.292 293.54 203.907 293.557 204.518 293.499Z" fill="#F47B56"/>
<path d="M223.568 304.081L218.674 301.413L219.955 294.41C219.955 294.41 227.244 295.103 227.885 297.694" fill="#003B94"/>
<path d="M225.412 303.978C226.514 303.298 227.667 302.696 228.807 302.093C231.638 300.541 235.725 298.938 237.467 296.026C238.198 294.821 238.106 293.288 237.237 292.178C234.674 289.074 229.063 294.179 226.194 290.742C225.63 290.062 225.361 279.275 225.361 279.275L214.446 282.225C214.446 282.225 212.589 303.978 212.794 305.261C212.999 306.543 216.752 307.826 216.752 307.826C217.87 307.588 218.937 307.154 219.904 306.543C221.044 305.71 220.006 295.539 221.467 296.962C222.927 298.386 223.568 303.953 223.568 303.953C224.179 304.037 224.799 304.046 225.412 303.978Z" fill="#F47B56"/>
<path d="M188.005 233.614L184.789 276.672C184.789 276.672 189.914 283.752 207.093 279.814L207.259 250.788" fill="#3E2928"/>
<path d="M207.849 242.144C207.477 245.85 207.849 286.74 207.849 286.74C207.849 286.74 212.601 295.641 233.291 286.74L232.996 251.994" fill="#3E2928"/>
<path d="M186.403 247.838C187.813 248.813 188.299 243.798 189.773 244.658C195.132 247.775 200.821 250.287 206.734 252.148H206.862C207.147 252.01 207.475 251.993 207.773 252.102C208.07 252.21 208.31 252.436 208.438 252.725C212.091 253.816 215.809 254.673 219.571 255.29C224.4 256.06 228.397 252.482 233.355 252.238C233.355 233.23 233.445 179.129 225.361 167.586L201.443 159.531C201.328 161.506 189.837 174.845 190.118 191.109C190.439 209.437 188.056 226.727 187.646 232.46C187.582 233.435 186.455 246.8 186.403 247.838Z" fill="#3E2928"/>
<path d="M227.564 145.73L225.361 167.534C225.361 167.534 207.516 168.253 199.829 162.943V144.447" fill="#FF8F6F"/>
<path d="M250.252 131.378L248.433 133.866C249.403 131.842 250.259 129.765 250.995 127.645C251.508 126.196 249.189 125.619 248.677 127.068L248.408 127.812C248.63 127.042 248.839 126.269 249.035 125.49C249.195 124.849 248.805 124.2 248.164 124.041C247.524 123.882 246.876 124.272 246.717 124.913C246.214 126.926 245.611 128.912 244.91 130.865C245.302 129.131 245.584 127.375 245.756 125.606C245.91 124.08 243.514 124.144 243.373 125.606C243.174 127.619 242.814 129.614 242.297 131.57C242.297 130.886 242.233 130.202 242.105 129.518C242.069 129.173 241.887 128.86 241.605 128.658C241.541 128.389 241.464 128.133 241.375 127.863C241.187 127.309 240.629 126.97 240.052 127.058C239.474 127.147 239.044 127.638 239.03 128.222L238.876 137.201C238.443 138.132 237.877 138.996 237.198 139.766C238.351 140.564 239.463 141.42 240.529 142.331C241.48 143.136 242.387 143.993 243.245 144.896C244.014 143.939 244.752 142.964 245.461 141.972C245.549 141.897 245.627 141.811 245.692 141.715C247.827 138.552 250.03 135.439 252.302 132.378C253.25 131.326 251.162 130.159 250.252 131.378Z" fill="#FFB5A9"/>
<path d="M216.24 125.85C216.24 125.85 224.669 128.12 228.09 133.545C230.232 137.3 232.119 141.195 233.739 145.204L239.965 135.52C239.965 135.52 247.524 137.842 250.521 141.562C250.521 141.562 241.554 161.185 233.739 162.866C225.925 164.546 217.623 151.348 217.623 151.348C217.623 151.348 215.907 156.863 216.24 150.976" fill="#FF8F6F"/>
<path d="M221.595 146.82C219.144 144.824 217.295 142.187 216.253 139.202C215.24 135.751 216.509 132.724 217.687 129.518C218.963 126.339 219.708 122.972 219.891 119.552C219.993 116.192 219.609 112.831 219.378 109.483C219.345 109.34 219.345 109.191 219.378 109.047C218.251 105.264 215.945 102.057 211.397 101.672C199.624 100.672 198.958 113.729 199.048 119.039C199.137 124.349 199.701 127.94 195.794 130.159C191.886 132.378 189.068 138.201 192.796 142.908C196.524 147.615 193.18 145.897 190.695 150.078C188.21 154.259 188.85 159.48 193.949 161.365C199.048 163.25 222.748 159.71 224.925 157.517C225.698 156.634 226.098 155.484 226.04 154.311C225.508 151.359 223.93 148.699 221.595 146.82Z" fill="#007F68"/>
<path fill-rule="evenodd" clip-rule="evenodd" d="M236.506 48.8802C236.325 45.3837 235.171 42.0075 233.176 39.1324C231.4 36.2591 228.777 34.0092 225.668 32.6937C224.076 31.9826 222.277 31.8911 220.621 32.4372C219.041 32.9971 217.738 34.1457 216.983 35.6437C216.073 37.4293 215.666 39.4288 215.804 41.4283C215.915 43.8067 216.471 46.1431 217.444 48.3159C218.415 50.5909 219.758 52.6887 221.415 54.5237C222.814 56.1552 224.567 57.445 226.54 58.2946C227.234 58.572 227.962 58.7575 228.705 58.8461C229.27 58.922 229.843 58.922 230.408 58.8461C230.85 58.7848 231.281 58.664 231.69 58.4869C231.949 58.3846 232.202 58.2646 232.445 58.1278L232.702 57.9483L231.152 55.0624L230.639 55.3446C230.118 55.5853 229.546 55.6912 228.974 55.6524C228.095 55.6617 227.223 55.4915 226.412 55.1522C224.08 54.082 222.16 52.2811 220.941 50.0217C219.411 47.7343 218.525 45.0755 218.379 42.3261C218.133 40.1398 218.891 37.9598 220.442 36.4004C221.911 35.1008 224.023 34.8313 225.771 35.7206C228.124 36.6998 230.11 38.3961 231.446 40.5689C232.933 42.7045 233.79 45.2157 233.919 47.8156C234.013 50.4407 233.44 51.5096 232.202 51.0222C231.761 50.831 231.392 50.5027 231.152 50.0859C230.868 49.6544 230.708 49.1529 230.69 48.6365L230.434 41.4283L227.872 40.4278V41.5693L227.641 41.1589C227.378 40.7834 227.068 40.4429 226.719 40.1456C226.309 39.7737 225.836 39.4783 225.323 39.2735C224.286 38.7631 223.041 38.958 222.21 39.7609C221.265 40.8045 220.828 42.2129 221.018 43.6087C221.072 45.3326 221.585 47.0108 222.504 48.4698C223.267 49.8125 224.445 50.8704 225.861 51.4839C226.454 51.7529 227.116 51.8335 227.757 51.7148C228.14 51.6585 228.502 51.5038 228.807 51.2659C228.927 51.134 229.031 50.9875 229.115 50.8298L229.422 51.4326C229.718 51.951 230.089 52.4222 230.524 52.8306C231.008 53.3332 231.593 53.7267 232.24 53.985C233.301 54.5503 234.609 54.3232 235.418 53.4335C236.341 52.1074 236.73 50.4811 236.506 48.8802ZM228.051 46.3535C228.136 47.031 227.946 47.7142 227.526 48.2517C227.133 48.6423 226.533 48.7355 226.04 48.4826C225.354 48.1849 224.782 47.6717 224.413 47.0204C223.964 46.3036 223.712 45.4806 223.683 44.6348C223.593 43.9624 223.799 43.2843 224.246 42.775C224.678 42.3849 225.306 42.3031 225.822 42.5698C226.48 42.8561 227.025 43.3521 227.372 43.9806C227.797 44.7006 228.031 45.5175 228.051 46.3535Z" fill="#F47B56"/>
<path fill-rule="evenodd" clip-rule="evenodd" d="M387.764 187.761C387.586 184.264 386.432 180.887 384.433 178.013C382.721 175.108 380.152 172.805 377.079 171.421C375.482 170.715 373.68 170.623 372.019 171.164C370.44 171.732 369.138 172.884 368.381 174.383C367.471 176.164 367.063 178.16 367.202 180.155C367.312 182.534 367.869 184.87 368.842 187.043C369.813 189.322 371.155 191.424 372.813 193.263C374.214 194.89 375.966 196.176 377.938 197.022C378.628 197.303 379.351 197.492 380.09 197.586C380.66 197.661 381.237 197.661 381.807 197.586C382.246 197.517 382.676 197.397 383.088 197.227C383.348 197.124 383.6 197.004 383.844 196.868L384.1 196.688L382.55 193.802L382.037 194.084C381.515 194.32 380.944 194.426 380.372 194.392C379.492 194.392 378.622 194.217 377.81 193.879C375.482 192.861 373.542 191.121 372.275 188.915C370.743 186.629 369.857 183.97 369.713 181.22C369.441 179.029 370.182 176.833 371.725 175.256C373.198 173.964 375.308 173.7 377.054 174.589C379.4 175.568 381.38 177.259 382.716 179.424C384.202 181.565 385.059 184.08 385.189 186.684C385.266 189.313 384.74 190.378 383.459 189.89C383.018 189.699 382.65 189.371 382.409 188.954C382.129 188.52 381.97 188.02 381.948 187.505L381.691 180.296L379.129 179.309V180.45L378.886 180.04C378.622 179.661 378.312 179.316 377.963 179.014C377.554 178.641 377.081 178.346 376.567 178.142C375.534 177.633 374.294 177.828 373.467 178.629C372.515 179.669 372.078 181.08 372.275 182.477C372.329 184.207 372.847 185.89 373.774 187.351C374.535 188.698 375.713 189.761 377.131 190.378C377.72 190.647 378.379 190.723 379.014 190.596C379.398 190.542 379.76 190.387 380.064 190.147C380.182 190.013 380.285 189.867 380.372 189.711L380.679 190.313C380.978 190.83 381.349 191.301 381.781 191.712C382.268 192.211 382.852 192.604 383.498 192.866C384.559 193.426 385.864 193.2 386.675 192.314C387.598 190.988 387.987 189.362 387.764 187.761ZM379.321 185.234C379.402 185.914 379.208 186.597 378.783 187.133C378.387 187.519 377.788 187.607 377.297 187.351C376.61 187.048 376.039 186.531 375.67 185.876C375.221 185.163 374.969 184.345 374.94 183.503C374.851 182.828 375.061 182.148 375.517 181.643C375.951 181.257 376.578 181.181 377.092 181.451C377.748 181.736 378.289 182.233 378.63 182.862C379.061 183.58 379.299 184.397 379.321 185.234Z" fill="#F47B56"/>
<g style="mix-blend-mode:multiply" opacity="0.25">
<path d="M129.139 232.704L85.7744 208.001L42.4226 232.755C42.4226 232.755 66.5454 247.838 88.1316 260.511C101.839 250.814 114.022 239.72 129.139 232.704Z" fill="url(#paint4_linear_2_2)"/>
</g>
<g filter="url(#filter0_d_2_2)">
<path fill-rule="evenodd" clip-rule="evenodd" d="M50.9305 163.881V217.75L92.8987 241.786L140.286 213.761V159.892" fill="#FF9271"/>
</g>
<path d="M92.8987 187.917V241.786L140.286 213.761V159.892L92.8987 187.917Z" fill="#DF5C34"/>
<path d="M50.9305 163.881L99.6244 136.125L140.286 159.892L92.8987 187.917L50.9305 163.881Z" fill="#F47B56"/>
<path fill-rule="evenodd" clip-rule="evenodd" d="M108.22 151.619C103.879 149.242 98.9501 148.156 94.0132 148.489C88.8335 148.581 83.7728 150.06 79.3577 152.773C77.0421 154.092 75.1999 156.107 74.0924 158.532C73.1692 160.632 73.1692 163.024 74.0924 165.125C75.2104 167.507 77.0719 169.461 79.3961 170.691C82.2759 172.319 85.4507 173.357 88.7352 173.744C92.3487 174.244 96.0179 174.179 99.6116 173.552C102.909 173.05 106.077 171.908 108.938 170.191C109.931 169.584 110.854 168.87 111.692 168.062C112.328 167.459 112.895 166.788 113.383 166.061C113.721 165.522 113.997 164.945 114.203 164.342C114.346 163.967 114.462 163.581 114.549 163.188C114.557 163.043 114.557 162.897 114.549 162.752L109.796 162.483L109.617 163.291C109.359 164.105 108.921 164.85 108.336 165.471C107.461 166.487 106.427 167.353 105.274 168.036C101.942 170.012 98.1285 171.024 94.2566 170.961C90.3677 171.125 86.5095 170.206 83.1112 168.306C79.9982 166.472 78.3969 164.188 78.3969 161.623C78.3712 159.007 79.8701 156.754 82.8935 154.864C86.2157 152.838 90.021 151.744 93.9108 151.696C97.581 151.454 101.244 152.269 104.467 154.043C107.499 155.839 108.131 157.288 106.363 158.391C105.067 159.089 103.508 159.089 102.212 158.391L93.8723 153.479L90.2725 155.723L91.5536 156.493H90.849C90.1592 156.531 89.4759 156.647 88.8121 156.839C87.9796 157.055 87.1848 157.397 86.4549 157.852C84.9035 158.589 83.9086 160.148 83.8927 161.867C83.9696 163.457 84.9944 164.843 86.9929 166.023C89.1063 167.237 91.5132 167.845 93.9492 167.78C96.3036 167.826 98.6241 167.213 100.649 166.01C101.518 165.517 102.243 164.805 102.75 163.945C103.055 163.482 103.232 162.946 103.263 162.393C103.234 162.159 103.174 161.93 103.083 161.713L104.057 161.79C104.949 161.816 105.84 161.726 106.709 161.521C107.766 161.307 108.776 160.908 109.694 160.341C111.628 159.173 112.448 157.788 112.256 156.198C112.064 154.607 110.706 153.081 108.22 151.619ZM97.075 159.751C97.9063 160.112 98.5056 160.861 98.6764 161.752H98.7276C98.7408 162.571 98.2682 163.321 97.5234 163.663C96.5394 164.244 95.4119 164.538 94.2695 164.509C93.0809 164.537 91.9073 164.24 90.8746 163.65C90.0535 163.29 89.4803 162.526 89.3629 161.636C89.3822 160.782 89.8766 160.01 90.644 159.635C91.5787 159.075 92.6557 158.799 93.7442 158.84C94.9156 158.842 96.0654 159.156 97.075 159.751Z" fill="#3E2928"/>
<defs>
<filter id="filter0_d_2_2" x="0.930481" y="134.892" width="189.355" height="181.895" filterUnits="userSpaceOnUse" color-interpolation-filters="sRGB">
<feFlood flood-opacity="0" result="BackgroundImageFix"/>
<feColorMatrix in="SourceAlpha" type="matrix" values="0 0 0 0 0 0 0 0 0 0 0 0 0 0 0 0 0 0 127 0" result="hardAlpha"/>
<feOffset dy="25"/>
<feGaussianBlur stdDeviation="25"/>
<feColorMatrix type="matrix" values="0 0 0 0 0.209139 0 0 0 0 0.0691446 0 0 0 0 0.478091 0 0 0 0.497159 0"/>
<feBlend mode="normal" in2="BackgroundImageFix" result="effect1_dropShadow_2_2"/>
<feBlend mode="normal" in="SourceGraphic" in2="effect1_dropShadow_2_2" result="shape"/>
</filter>
<linearGradient id="paint0_linear_2_2" x1="255.715" y1="185.543" x2="244.685" y2="218.24" gradientUnits="userSpaceOnUse">
<stop stop-color="#78B46A"/>
<stop offset="0.03" stop-color="#7F3500"/>
<stop offset="1" stop-color="white"/>
</linearGradient>
<linearGradient id="paint1_linear_2_2" x1="183.536" y1="252.477" x2="164.981" y2="310.838" gradientUnits="userSpaceOnUse">
<stop stop-color="#78B46A"/>
<stop offset="0.03" stop-color="#7F3500"/>
<stop offset="1" stop-color="white"/>
</linearGradient>
<linearGradient id="paint2_linear_2_2" x1="137.7" y1="130.002" x2="120.536" y2="169.625" gradientUnits="userSpaceOnUse">
<stop stop-color="#78B46A"/>
<stop offset="0.03" stop-color="#7F3500"/>
<stop offset="1" stop-color="white"/>
</linearGradient>
<linearGradient id="paint3_linear_2_2" x1="378.656" y1="165.452" x2="371.951" y2="148.459" gradientUnits="userSpaceOnUse">
<stop stop-color="white" stop-opacity="0.01"/>
<stop offset="0.99" stop-color="#DC841E"/>
</linearGradient>
<linearGradient id="paint4_linear_2_2" x1="72.555" y1="188.349" x2="53.0329" y2="246.801" gradientUnits="userSpaceOnUse">
<stop stop-color="#78B46A"/>
<stop offset="0.03" stop-color="#7F3500"/>
<stop offset="1" stop-color="white"/>
</linearGradient>
</defs>
</svg>
