<svg width="64" height="64" viewBox="0 0 64 64" fill="none" xmlns="http://www.w3.org/2000/svg">
<path fill-rule="evenodd" clip-rule="evenodd" d="M62.8526 10.7594L53.2407 1.14742C52.0691 -0.0241555 50.1696 -0.0241555 48.9981 1.14742L32.0001 18.1454L15.0021 1.14742C13.8305 -0.0241555 11.931 -0.0241555 10.7594 1.14742L1.14748 10.7594C-0.0240945 11.9309 -0.0240945 13.8304 1.14748 15.002L18.1455 32L1.14748 48.998C-0.0240945 50.1696 -0.0240945 52.0691 1.14748 53.2406L10.7594 62.8526C11.931 64.0241 13.8305 64.0241 15.0021 62.8526L32.0001 45.8546L48.9981 62.8526C50.1696 64.0241 52.0691 64.0241 53.2407 62.8526L62.8526 53.2406C64.0242 52.0691 64.0242 50.1696 62.8526 48.998L45.8546 32L62.8526 15.002C64.0242 13.8304 64.0242 11.9309 62.8526 10.7594Z" fill="#31C3BD"/>
</svg>
