<svg width="64" height="64" viewBox="0 0 64 64" fill="none" xmlns="http://www.w3.org/2000/svg">
<g id="002-homepage">
<path id="Path" d="M64 14.4541V56.2424H0V14.4541L3.75 10.6667H60.25L64 14.4541Z" fill="#EFEFF4"/>
<path id="Path_2" d="M64 14.4541V56.2424H32V10.6667H60.25L64 14.4541Z" fill="#DADAE5"/>
<path id="Path_3" d="M0 0H64V15.5152H0V0Z" fill="#474F54"/>
<path id="Path_4" d="M32 0H64V15.5152H32V0Z" fill="#32393F"/>
<g id="Group">
<path id="Path_5" d="M7.75757 5.81818H11.4424V9.69696H7.75757V5.81818Z" fill="#FF637B"/>
<path id="Path_6" d="M15.1273 5.81818H18.8121V9.69696H15.1273V5.81818Z" fill="#FF637B"/>
<path id="Path_7" d="M22.4969 5.81818H26.1818V9.69696H22.4969V5.81818Z" fill="#FF637B"/>
</g>
<path id="Path_8" d="M45.5757 42.2453V64H34.355V60.2898H30.6147V64H19.3939V42.2453L30.7642 32.9697H33.8689L45.5757 42.2453Z" fill="#FF637B"/>
<path id="Path_9" d="M11.6364 22.303H53.3333V26.1818H11.6364V22.303Z" fill="#DADAE5"/>
<path id="Path_10" d="M32 22.303H52.3636V26.1818H32V22.303Z" fill="#C9C9D3"/>
<path id="Path_11" d="M45.5758 42.2453V64H33.9394V60.2898H32V32.9697H33.4354L45.5758 42.2453Z" fill="#E63950"/>
<path id="Path_12" d="M30.0606 45.5757H33.9394V49.4545H30.0606V45.5757Z" fill="#EFEFF4"/>
<path id="Path_13" d="M32 45.5757H33.9394V49.4545H32V45.5757Z" fill="#DADAE5"/>
<path id="Path_14" d="M50.4243 45.7793L47.9724 48.4848L32.4849 34.9586L16.9974 48.4848L14.5455 45.7793L32.4849 30.0606L50.4243 45.7793Z" fill="#676E74"/>
<path id="Path_15" d="M32 30.0606L50.4242 45.7793L47.9061 48.4848L32 34.9586L32 30.0606Z" fill="#474F54"/>
</g>
</svg>
