<svg width="64" height="64" viewBox="0 0 64 64" fill="none" xmlns="http://www.w3.org/2000/svg">
<g id="009-idea">
<path id="Path" d="M26.375 52.625H37.625V64H26.375V52.625Z" fill="#676E74"/>
<path id="Path_2" d="M32 52.625H37.625V64H32V52.625Z" fill="#333637"/>
<path id="Path_3" d="M22.625 47H41.375V56.375H22.625V47Z" fill="#4C545A"/>
<path id="Path_4" d="M32 47H41.375V56.375H32V47Z" fill="#52585C"/>
<path id="Path_5" d="M45.0122 36.7251C42.6875 38.6377 41.375 41.3374 41.375 44.1499V47H22.625V44.1499C22.625 41.2998 21.3872 38.6377 19.3252 37.0249C14.2627 33.0874 11.375 27.1626 11.375 20.75C11.375 14.5249 14.1499 8.67529 18.9878 4.7373C22.7002 1.7373 27.2373 0 32 0C33.4624 0 34.9624 0.149902 36.4248 0.450195C44.5249 2.1377 50.8999 8.8999 52.3252 17.1128C53.6001 24.6128 50.8999 31.9624 45.0122 36.7251Z" fill="#FFDA2D"/>
<path id="Path_6" d="M45.0122 36.7251C42.6875 38.6377 41.375 41.3374 41.375 44.1499V47H32V0C33.4624 0 34.9624 0.149902 36.4248 0.450195C44.5249 2.1377 50.8999 8.8999 52.3252 17.1128C53.6001 24.6128 50.8999 31.9624 45.0122 36.7251Z" fill="#FDBF00"/>
<path id="Path_7" d="M18.875 45.125H45.125V48.875H18.875V45.125Z" fill="#676E74"/>
<path id="Path_8" d="M39.9556 10.1426L42.6069 12.7939L38.6284 16.7725L35.9771 14.1211L39.9556 10.1426Z" fill="#FF9100"/>
<path id="Path_9" d="M25.3716 24.7266L28.0229 27.3779L24.0439 31.3569L21.3926 28.7056L25.3716 24.7266Z" fill="#FDBF00"/>
<path id="Path_10" d="M30.125 28.25H33.875V33.875H30.125V28.25Z" fill="#FDBF00"/>
<path id="Path_11" d="M38.6284 24.7266L42.6069 28.7056L39.9556 31.3569L35.9771 27.3779L38.6284 24.7266Z" fill="#FF9100"/>
<path id="Path_12" d="M39.5 18.875H45.125V22.625H39.5V18.875Z" fill="#FF9100"/>
<path id="Path_13" d="M24.0439 10.1426L28.0229 14.1216L25.3716 16.7725L21.3926 12.7939L24.0439 10.1426Z" fill="#FDBF00"/>
<path id="Path_14" d="M18.875 18.875H24.5V22.625H18.875V18.875Z" fill="#FDBF00"/>
<path id="Path_15" d="M30.125 7.625H33.875V13.25H30.125V7.625Z" fill="#FDBF00"/>
<g id="Group">
<path id="Path_16" d="M0 18.875H7.625V22.625H0V18.875Z" fill="#FFDA2D"/>
<path id="Path_17" d="M6.58496 14.8101L0.834961 11.0601L2.91504 7.93994L8.66504 11.6899L6.58496 14.8101Z" fill="#FFDA2D"/>
<path id="Path_18" d="M2.91504 33.5601L0.834961 30.4399L6.58496 26.6899L8.66504 29.8101L2.91504 33.5601Z" fill="#FFDA2D"/>
</g>
<path id="Path_19" d="M56.375 18.875H64V22.625H56.375V18.875Z" fill="#FDBF00"/>
<path id="Path_20" d="M61.085 33.5601L55.335 29.8101L57.415 26.6899L63.165 30.4399L61.085 33.5601Z" fill="#FDBF00"/>
<path id="Path_21" d="M57.415 14.8101L55.335 11.6899L61.085 7.93994L63.165 11.0601L57.415 14.8101Z" fill="#FDBF00"/>
<path id="Path_22" d="M32 7.625H33.875V13.25H32V7.625Z" fill="#FF9100"/>
<path id="Path_23" d="M32 28.25H33.875V33.875H32V28.25Z" fill="#FF9100"/>
<path id="Path_24" d="M32 45.125H45.125V48.875H32V45.125Z" fill="#333637"/>
<path id="Path_25" d="M32 11.375C26.8252 11.375 22.625 15.5752 22.625 20.75C22.625 25.9248 26.8252 30.125 32 30.125C37.1748 30.125 41.375 25.9248 41.375 20.75C41.375 15.5752 37.1748 11.375 32 11.375Z" fill="#FDBF00"/>
<path id="Path_26" d="M32 30.125V11.375C37.1748 11.375 41.375 15.5752 41.375 20.75C41.375 25.9248 37.1748 30.125 32 30.125Z" fill="#FF9100"/>
<path id="Path_27" d="M30.125 18.875H33.875V22.625H30.125V18.875Z" fill="#FFDA2D"/>
<path id="Path_28" d="M32 18.875H33.875V22.625H32V18.875Z" fill="#FDBF00"/>
</g>
</svg>
