<svg width="64" height="64" viewBox="0 0 64 64" fill="none" xmlns="http://www.w3.org/2000/svg">
<g id="045-software">
<path id="Path" d="M64 0V41.25L60.25 45.125H3.75L0 41.25V0H64Z" fill="#474F54"/>
<path id="Path_2" d="M64 0V41.25L60.25 45.125H32V0H64Z" fill="#32393F"/>
<path id="Path_3" d="M22.625 50.875H41.375V62.125H22.625V50.875Z" fill="#DADAE5"/>
<path id="Path_4" d="M32 50.875H41.375V62.125H32V50.875Z" fill="#C9C9D3"/>
<path id="Path_5" d="M0 41.25H64V52.75H0V41.25Z" fill="#EFEFF4"/>
<path id="Path_6" d="M32 41.25H64V52.75H32V41.25Z" fill="#DADAE5"/>
<path id="Path_7" d="M15.125 60.25H48.875V64H15.125V60.25Z" fill="#EFEFF4"/>
<path id="Path_8" d="M32 60.25H48.875V64H32V60.25Z" fill="#DADAE5"/>
<path id="Shape" fill-rule="evenodd" clip-rule="evenodd" d="M7.625 20.625C7.625 13.3887 13.5137 7.5 20.75 7.5C27.9863 7.5 33.875 13.3887 33.875 20.625C33.875 27.8613 27.9863 33.75 20.75 33.75C13.5137 33.75 7.625 27.8613 7.625 20.625ZM15.125 20.625C15.125 23.7266 17.6484 26.25 20.75 26.25C23.8516 26.25 26.375 23.7266 26.375 20.625C26.375 17.5234 23.8516 15 20.75 15C17.6484 15 15.125 17.5234 15.125 20.625Z" fill="#549EF2"/>
<g id="Group">
<path id="Path_9" d="M45.125 7.5H56.5V11.25H45.125V7.5Z" fill="#377FD2"/>
<path id="Path_10" d="M37.625 7.5H41.375V11.25H37.625V7.5Z" fill="#377FD2"/>
<path id="Path_11" d="M45.125 22.5H56.5V26.25H45.125V22.5Z" fill="#377FD2"/>
<path id="Path_12" d="M37.625 22.5H41.375V26.25H37.625V22.5Z" fill="#377FD2"/>
<path id="Path_13" d="M37.625 15H56.5V18.75H37.625V15Z" fill="#377FD2"/>
<path id="Path_14" d="M37.625 30H56.5V33.75H37.625V30Z" fill="#377FD2"/>
</g>
</g>
</svg>
